<svg xmlns="http://www.w3.org/2000/svg" xmlns:xlink="http://www.w3.org/1999/xlink" viewBox="4075 1803 92 92">
  <defs>
    <style>
      .cls-1 {
        clip-path: url(#clip-development-tools);
      }

      .cls-2 {
        fill: #fff;
      }
    </style>
    <clipPath id="clip-development-tools">
      <rect x="4075" y="1803" width="92" height="92"/>
    </clipPath>
  </defs>
  <g id="development-tools" class="cls-1">
    <g id="Group_183" data-name="Group 183" transform="translate(4065.925 1793.569)">
      <path id="Path_121" data-name="Path 121" class="cls-2" d="M84.09,89.578a7.943,7.943,0,0,0-.346-11.343L39.528,38.16l-5.42,5.545L73.075,89.221a7.413,7.413,0,0,0,11.015.357Z" transform="translate(3.102 3.574)"/>
      <path id="Path_122" data-name="Path 122" class="cls-2" d="M24.338,75.532a7.871,7.871,0,0,0-.344,11.239,7.346,7.346,0,0,0,10.916-.354L53.076,65.168A1.085,1.085,0,0,1,53.29,65L45.7,56.14Z" transform="translate(1.577 6.402)"/>
      <path id="Path_123" data-name="Path 123" class="cls-2" d="M64.181,38.642l-11.463,10.4,7.289,6.606a1.144,1.144,0,0,1,.25-.614l9.286-10.861a18.447,18.447,0,0,1-2.95-2.462A18.781,18.781,0,0,1,64.181,38.642Z" transform="translate(5.409 3.65)"/>
      <path id="Path_124" data-name="Path 124" class="cls-2" d="M93.814,27.316l-8.175,8.417a1.1,1.1,0,0,1-1.086.3l-7.325-2.021a1.142,1.142,0,0,1-.795-.818l-1.963-7.543a1.179,1.179,0,0,1,.291-1.118l8.175-8.417A15.689,15.689,0,0,0,67,20.29a16.943,16.943,0,0,0,0,23.439,15.787,15.787,0,0,0,22.763,0A16.861,16.861,0,0,0,93.814,27.316Z" transform="translate(6.595 0)"/>
      <path id="Path_125" data-name="Path 125" class="cls-2" d="M25.78,55.631a1.321,1.321,0,0,0,.006-1.829,3.684,3.684,0,0,1,.015-5.1l.881-.9a3.434,3.434,0,0,1,4.955.016,1.233,1.233,0,0,0,1.776.007L41.74,39.3a9.866,9.866,0,0,0,2.667-5.59c1.064-8.1,5.447-13.775,11.438-14.822A1.417,1.417,0,0,0,57,17.6a1.3,1.3,0,0,0-1.052-1.391c-4.5-.74-13.424-.584-22.558,8.76L22.308,36.312a1.321,1.321,0,0,0-.007,1.829,3.682,3.682,0,0,1-.016,5.1l-.88.9a3.433,3.433,0,0,1-4.955-.016,1.231,1.231,0,0,0-.887-.382h0a1.232,1.232,0,0,0-.885.375L9.843,49.063a2.7,2.7,0,0,0-.359,3.315,28.322,28.322,0,0,0,3.663,4.74,27.743,27.743,0,0,0,4.581,3.8,2.5,2.5,0,0,0,3.22-.348Z" transform="translate(0 0.08)"/>
    </g>
  </g>
</svg>
