<svg xmlns="http://www.w3.org/2000/svg" xmlns:xlink="http://www.w3.org/1999/xlink" viewBox="4399 1803 92 92">
  <defs>
    <style>
      .cls-1 {
        clip-path: url(#clip-marketing-loudspeaker);
      }

      .cls-2 {
        fill: #fff;
      }
    </style>
    <clipPath id="clip-marketing-loudspeaker">
      <rect x="4399" y="1803" width="92" height="92"/>
    </clipPath>
  </defs>
  <g id="marketing-loudspeaker" class="cls-1">
    <g id="megaphone" transform="translate(4503.276 1891.615) rotate(180)">
      <path id="Path_128" data-name="Path 128" class="cls-2" d="M90.141,44.216l3.73-2.51a5.86,5.86,0,0,0,7.18,1.218,6.393,6.393,0,0,0,3.1-6.866l-2.816-13.43v-.176a6.123,6.123,0,0,0-5.358-4.774,6.015,6.015,0,0,0-6.049,3.77L44.7,15.5h0a6.036,6.036,0,0,0-7.244-4.721,6.314,6.314,0,0,0-4.526,7.558L43.5,69.57v.176a6.067,6.067,0,0,0,7.316,4.694,6.352,6.352,0,0,0,4.5-7.631v-.326l13.79-8.811ZM16.256,52.074a3.439,3.439,0,0,0,.746,0l11.624-2.51a3.719,3.719,0,0,0,2.72-4.418,3.564,3.564,0,0,0-4.236-2.837l-11.624,2.51a3.7,3.7,0,0,0-2.829,4.031,3.619,3.619,0,0,0,3.575,3.324Zm10.517-13.28h.578a3.6,3.6,0,0,0,3.029-3.323,3.666,3.666,0,0,0-2.451-3.806L15.9,29.556h-.578a3.6,3.6,0,0,0-3.029,3.323,3.666,3.666,0,0,0,2.451,3.806ZM21.455,66.407A3.413,3.413,0,0,0,23.4,65.78L33.536,58.7a3.771,3.771,0,0,0,.963-5.1,3.432,3.432,0,0,0-4.886-1L19.481,59.68a3.745,3.745,0,0,0-1.43,4.135,3.533,3.533,0,0,0,3.4,2.592Z" transform="translate(0 0)"/>
    </g>
  </g>
</svg>
